# xmcd CD database file
#
# Track frame offsets:
#	150
#	25005
#	45647
#	59290
#	79877
#	95452
#	120285
#	143655
#	166705
#	179822
#	195485
#	213387
#	231712
#
# Disc length: 3212 seconds
#
# Revision: 0
# Processed by: cddbd v1.5.1PL0 Copyright (c) Steve Scherf et al.
# Submitted via: CDex 1.51
#
DISCID=ad0c8a0d
DTITLE=Neeb, Claes - For you once more
DYEAR=1999
DGENRE=Blues
TTITLE0=For you once more
TTITLE1=Square head clog dance
TTITLE2=Certified guitar player
TTITLE3=gibson girl
TTITLE4=Break a leg
TTITLE5=Have you heard the news!
TTITLE6=Norwegian mountain song
TTITLE7=Fredrik
TTITLE8=(Closing time at) The Chatterbox Café
TTITLE9=Flight level 100 or above
TTITLE10=From Lake Wobegon
TTITLE11=Some leather and lace
TTITLE12=The unknown Norwegian
EXTD=YEAR: 1999
EXTT0=
EXTT1=
EXTT2=
EXTT3=
EXTT4=
EXTT5=
EXTT6=
EXTT7=
EXTT8=
EXTT9=
EXTT10=
EXTT11=
EXTT12=
PLAYORDER=
